<svg width="1114" height="173" viewBox="0 0 1114 173" fill="none" xmlns="http://www.w3.org/2000/svg">
<g id="Vector">
<path d="M6 18.3984V166.398H34.3994V102.799C34.3994 100.174 34.8683 97.7245 35.8057 95.4512L36 94.998C37.125 92.7481 38.5429 90.7324 40.2539 88.9512L40.5996 88.5986C42.4745 86.8487 44.6427 85.5088 47.1035 84.5791L47.5996 84.3984C50.2246 83.3985 53.0255 82.8672 56.002 82.8047L56.5996 82.7988C60.5996 82.5322 63.9329 83.1988 66.5996 84.7988C69.3996 86.2655 71.4665 88.5988 72.7998 91.7988C74.133 94.9988 74.7998 98.999 74.7998 103.799V166.398H103.2V101.599C103.2 92.1322 101.8 84.1988 99 77.7988C96.3333 71.2655 92.2665 66.3982 86.7998 63.1982C81.6332 60.0983 75.2151 58.5002 67.5459 58.4033L66.7998 58.3984C60.9333 58.3984 55.3332 59.5981 50 61.998L49.0088 62.458C44.0947 64.8018 39.8252 67.8486 36.2002 71.5986C35.4163 72.4106 34.684 73.2446 34 74.0977V18.3984H6ZM40 60.6777C42.3601 59.1091 44.8747 57.7259 47.5381 56.5273C53.6479 53.7779 60.0871 52.3984 66.7998 52.3984C75.5562 52.3984 83.3442 54.1458 89.8301 58.0205C96.524 61.9389 101.389 67.8517 104.497 75.3936C107.724 82.7702 109.2 91.5814 109.2 101.599V172.398H68.7998V103.799C68.7998 99.7751 68.2698 96.7507 67.4326 94.5381L67.2617 94.1064C66.4115 92.0658 65.2516 90.8656 63.8154 90.1133L63.6621 90.0332L63.5127 89.9434C62.1612 89.1325 60.1296 88.5765 56.999 88.7852L56.7998 88.7988H56.5996C54.0796 88.7988 51.8079 89.2153 49.7354 90.0049L49.6592 90.0342L49.582 90.0615C47.7146 90.7151 46.1349 91.6629 44.7822 92.9033C43.4354 94.2627 42.3185 95.81 41.4248 97.5693C40.7588 99.1177 40.3994 100.839 40.3994 102.799V172.398H0V12.3984H40V60.6777Z" fill="white"/>
<path d="M183.871 58.5986H155.671V72.4697C153.638 69.7037 151.239 67.2124 148.471 64.998C145.271 62.3316 141.471 60.2654 137.071 58.7988C133.071 57.2988 128.661 56.502 123.841 56.4082L122.871 56.3984C113.671 56.3984 105.471 58.7987 98.2715 63.5986L97.6006 64.041C90.7144 68.6708 85.2046 74.9898 81.0713 82.998C76.938 91.1313 74.8711 100.532 74.8711 111.198C74.8711 121.865 76.938 131.332 81.0713 139.599C85.2046 147.865 90.8045 154.398 97.8711 159.198C104.938 163.998 112.871 166.398 121.671 166.398C126.604 166.398 131.271 165.665 135.671 164.198C140.071 162.598 144.004 160.531 147.471 157.998C150.495 155.758 153.094 153.281 155.271 150.57V164.398H183.871V58.5986ZM150.071 111.198C150.071 106.287 149.204 102.185 147.629 98.7578L147.305 98.082L147.272 98.0176L147.242 97.9531C145.565 94.3888 143.24 91.7542 140.261 89.8672L140.201 89.8301L140.143 89.791C137.235 87.8524 133.754 86.7988 129.471 86.7988C125.354 86.7989 121.932 87.8355 118.999 89.791L118.979 89.8037L118.959 89.8174C116.064 91.7145 113.677 94.4032 111.838 98.082C110.058 101.642 109.071 105.96 109.071 111.198L109.083 112.198C109.198 117.125 110.169 121.264 111.849 124.737C113.678 128.387 116.047 131.06 118.918 132.952C121.856 134.803 125.309 135.799 129.471 135.799V141.799L128.503 141.783C123.698 141.635 119.421 140.373 115.671 137.998C112.046 135.623 109.124 132.369 106.905 128.236L106.471 127.398C104.346 123.023 103.217 118.004 103.084 112.34L103.071 111.198C103.071 105.386 104.134 100.261 106.262 95.8252L106.471 95.3984C108.737 90.8652 111.804 87.3321 115.671 84.7988C119.671 82.1322 124.271 80.7989 129.471 80.7988L129.969 80.8027C135.095 80.8834 139.596 82.2155 143.471 84.7988C147.471 87.3322 150.538 90.8651 152.671 95.3984C154.938 99.9317 156.071 105.198 156.071 111.198L156.058 112.34C155.925 118.004 154.796 123.023 152.671 127.398C150.538 131.932 147.471 135.465 143.471 137.998C139.471 140.531 134.804 141.799 129.471 141.799V135.799C133.815 135.799 137.339 134.78 140.261 132.93C143.24 131.043 145.565 128.408 147.242 124.844L147.258 124.811L147.274 124.777C149.078 121.063 150.071 116.588 150.071 111.198ZM189.871 170.398H149.271V164.055C145.761 166.393 141.903 168.316 137.722 169.837L137.646 169.865L137.568 169.891C132.519 171.574 127.208 172.398 121.671 172.398C112.019 172.398 103.163 169.827 95.2617 164.669L94.5 164.162C86.5153 158.739 80.2578 151.389 75.7041 142.281C71.0945 133.062 68.8711 122.652 68.8711 111.198C68.8711 99.7466 71.0945 89.3874 75.7227 80.2803L75.7305 80.2637L75.7393 80.2461C80.4433 71.1321 86.8585 63.8455 95.0078 58.5635C103.241 53.093 112.592 50.3984 122.871 50.3984C128.639 50.3984 134.053 51.2802 139.044 53.1318C142.931 54.4347 146.486 56.1787 149.671 58.3848V52.5986H189.871V170.398Z" fill="white"/>
<path d="M155.766 16.3984V163.998H182.565L183.229 152.235C185.434 154.685 188.078 156.94 191.165 158.998C194.765 161.265 198.765 163.065 203.165 164.398C207.29 165.648 211.532 166.312 215.892 166.391L216.766 166.398C225.549 166.398 233.394 164.209 240.3 159.829L240.966 159.398C247.941 154.748 253.476 148.472 257.573 140.568L257.966 139.799C261.97 131.79 264.034 122.655 264.159 112.395L264.165 111.398C264.165 101.065 262.163 91.8583 258.159 83.7773L257.766 82.998C253.761 74.9897 248.318 68.6708 241.436 64.041L240.766 63.5986C233.791 58.9487 225.877 56.5506 217.025 56.4053L216.165 56.3984C211.765 56.3985 207.498 57.0651 203.365 58.3984L202.595 58.6543C198.759 59.9668 195.216 61.7481 191.966 63.998C188.895 66.0061 186.294 68.3289 184.165 70.9648V16.3984H155.766ZM230.565 111.398C230.565 106.492 229.7 102.306 228.099 98.7275L227.769 98.0195L227.737 97.957L227.709 97.8926C226.017 94.1913 223.69 91.5258 220.755 89.667C217.833 87.8166 214.31 86.7989 209.966 86.7988C205.621 86.7988 202.098 87.8165 199.176 89.667C196.207 91.547 193.791 94.2569 191.963 98.0195C190.151 101.751 189.165 106.165 189.165 111.398L189.177 112.398C189.292 117.338 190.27 121.485 191.957 124.964C193.768 128.567 196.191 131.32 199.23 133.362C202.142 135.191 205.648 136.198 209.966 136.198V142.198L208.974 142.184C204.052 142.035 199.716 140.773 195.966 138.398C192.216 135.898 189.228 132.578 187.001 128.438L186.565 127.599C184.44 123.224 183.312 118.204 183.179 112.54L183.165 111.398C183.165 105.586 184.229 100.399 186.356 95.8379L186.565 95.3984C188.761 90.8776 191.77 87.3576 195.593 84.8389L195.966 84.5986C199.966 82.0654 204.633 80.7988 209.966 80.7988L210.958 80.8135C215.88 80.962 220.216 82.2237 223.966 84.5986C227.966 87.1319 231.032 90.732 233.165 95.3984C235.432 100.065 236.565 105.398 236.565 111.398L236.552 112.54C236.419 118.204 235.29 123.224 233.165 127.599L232.73 128.438C230.504 132.578 227.516 135.898 223.766 138.398C219.899 140.932 215.299 142.198 209.966 142.198V136.198C214.304 136.198 217.714 135.184 220.457 133.393C223.523 131.344 225.962 128.574 227.782 124.945C229.577 121.238 230.565 116.773 230.565 111.398ZM190.165 57.9951C193.683 55.7625 197.474 53.9946 201.523 52.6885C206.26 51.1607 211.148 50.3985 216.165 50.3984C226.444 50.3984 235.795 53.0931 244.028 58.5635C252.175 63.8438 258.525 71.1309 263.097 80.2461C267.863 89.4808 270.165 99.9155 270.165 111.398L270.159 112.469C270.024 123.502 267.798 133.55 263.332 142.481C258.765 151.616 252.422 158.972 244.294 164.391L244.283 164.398L244.271 164.405C236.154 169.766 226.921 172.398 216.766 172.398C211.846 172.398 207.039 171.738 202.359 170.414L201.426 170.141C196.783 168.734 192.482 166.837 188.55 164.435L188.236 169.998H149.766V10.3984H190.165V57.9951Z" fill="white"/>
<path d="M235.54 58.6006V164.4H263.94V58.6006H235.54ZM266.94 21.4004C266.94 16.6005 265.407 12.8669 262.341 10.2002C259.274 7.40019 255.007 6 249.54 6C244.207 6.00007 239.94 7.46713 236.74 10.4004C233.674 13.2004 232.141 16.8671 232.141 21.4004L232.145 21.8594C232.237 26.57 233.769 30.2174 236.74 32.8008C239.711 35.384 243.808 36.7161 249.031 36.7969L249.54 36.8008C254.707 36.8008 258.81 35.4862 261.85 32.8584L262.141 32.6006C265.241 29.8881 266.839 26.2994 266.936 21.835L266.94 21.4004ZM269.94 170.4H229.54V52.6006H269.94V170.4ZM272.934 21.9805C272.799 27.9471 270.584 33.1837 266.091 37.1152C261.645 41.1247 255.886 42.8008 249.54 42.8008C243.331 42.8007 237.655 41.3259 233.228 37.6865L232.804 37.3281C228.149 33.2804 226.141 27.665 226.141 21.4004C226.141 15.354 228.261 10.0179 232.694 5.96973C237.239 1.80815 243.069 7.32008e-05 249.54 0C255.967 0 261.806 1.64924 266.277 5.67285C270.895 9.68811 272.94 15.2099 272.94 21.4004L272.934 21.9805Z" fill="white"/>
<path d="M236.766 16.3984V163.998H263.565L264.229 152.235C266.434 154.685 269.078 156.94 272.165 158.998C275.765 161.265 279.765 163.065 284.165 164.398C288.29 165.648 292.532 166.312 296.892 166.391L297.766 166.398C306.549 166.398 314.394 164.209 321.3 159.829L321.966 159.398C328.941 154.748 334.476 148.472 338.573 140.568L338.966 139.799C342.97 131.79 345.034 122.655 345.159 112.395L345.165 111.398C345.165 101.065 343.163 91.8583 339.159 83.7773L338.766 82.998C334.761 74.9897 329.318 68.6708 322.436 64.041L321.766 63.5986C314.791 58.9487 306.877 56.5506 298.025 56.4053L297.165 56.3984C292.765 56.3985 288.498 57.0651 284.365 58.3984L283.595 58.6543C279.759 59.9668 276.216 61.7481 272.966 63.998C269.895 66.0061 267.294 68.3289 265.165 70.9648V16.3984H236.766ZM311.565 111.398C311.565 106.492 310.7 102.306 309.099 98.7275L308.769 98.0195L308.737 97.957L308.709 97.8926C307.017 94.1913 304.69 91.5258 301.755 89.667C298.833 87.8166 295.31 86.7989 290.966 86.7988C286.621 86.7988 283.098 87.8165 280.176 89.667C277.207 91.547 274.791 94.2569 272.963 98.0195C271.151 101.751 270.165 106.165 270.165 111.398L270.177 112.398C270.292 117.338 271.27 121.485 272.957 124.964C274.768 128.567 277.191 131.32 280.23 133.362C283.142 135.191 286.648 136.198 290.966 136.198V142.198L289.974 142.184C285.052 142.035 280.716 140.773 276.966 138.398C273.216 135.898 270.228 132.578 268.001 128.438L267.565 127.599C265.44 123.224 264.312 118.204 264.179 112.54L264.165 111.398C264.165 105.586 265.229 100.399 267.356 95.8379L267.565 95.3984C269.761 90.8776 272.77 87.3576 276.593 84.8389L276.966 84.5986C280.966 82.0654 285.633 80.7988 290.966 80.7988L291.958 80.8135C296.88 80.962 301.216 82.2237 304.966 84.5986C308.966 87.1319 312.032 90.732 314.165 95.3984C316.432 100.065 317.565 105.398 317.565 111.398L317.552 112.54C317.419 118.204 316.29 123.224 314.165 127.599L313.73 128.438C311.504 132.578 308.516 135.898 304.766 138.398C300.899 140.932 296.299 142.198 290.966 142.198V136.198C295.304 136.198 298.714 135.184 301.457 133.393C304.523 131.344 306.962 128.574 308.782 124.945C310.577 121.238 311.565 116.773 311.565 111.398ZM271.165 57.9951C274.683 55.7625 278.474 53.9946 282.523 52.6885C287.26 51.1607 292.148 50.3985 297.165 50.3984C307.444 50.3984 316.795 53.0931 325.028 58.5635C333.175 63.8438 339.525 71.1309 344.097 80.2461C348.863 89.4808 351.165 99.9155 351.165 111.398L351.159 112.469C351.024 123.502 348.798 133.55 344.332 142.481C339.765 151.616 333.422 158.972 325.294 164.391L325.283 164.398L325.271 164.405C317.154 169.766 307.921 172.398 297.766 172.398C292.846 172.398 288.039 171.738 283.359 170.414L282.426 170.141C277.783 168.734 273.482 166.837 269.55 164.435L269.236 169.998H230.766V10.3984H271.165V57.9951Z" fill="white"/>
<path d="M317.54 58.6006V164.4H345.94V58.6006H317.54ZM348.94 21.4004C348.94 16.6005 347.407 12.8669 344.341 10.2002C341.274 7.40019 337.007 6 331.54 6C326.207 6.00007 321.94 7.46713 318.74 10.4004C315.674 13.2004 314.141 16.8671 314.141 21.4004L314.145 21.8594C314.237 26.57 315.769 30.2174 318.74 32.8008C321.711 35.384 325.808 36.7161 331.031 36.7969L331.54 36.8008C336.707 36.8008 340.81 35.4862 343.85 32.8584L344.141 32.6006C347.241 29.8881 348.839 26.2994 348.936 21.835L348.94 21.4004ZM351.94 170.4H311.54V52.6006H351.94V170.4ZM354.934 21.9805C354.799 27.9471 352.584 33.1837 348.091 37.1152C343.645 41.1247 337.886 42.8008 331.54 42.8008C325.331 42.8007 319.655 41.3259 315.228 37.6865L314.804 37.3281C310.149 33.2804 308.141 27.665 308.141 21.4004C308.141 15.354 310.261 10.0179 314.694 5.96973C319.239 1.80815 325.069 7.32008e-05 331.54 0C337.967 0 343.806 1.64924 348.277 5.67285C352.895 9.68811 354.94 15.2099 354.94 21.4004L354.934 21.9805Z" fill="white"/>
<path d="M429.371 58.5986H401.171V72.4697C399.138 69.7037 396.739 67.2124 393.971 64.998C390.771 62.3316 386.971 60.2654 382.571 58.7988C378.571 57.2988 374.161 56.502 369.341 56.4082L368.371 56.3984C359.171 56.3984 350.971 58.7987 343.771 63.5986L343.101 64.041C336.214 68.6708 330.705 74.9898 326.571 82.998C322.438 91.1313 320.371 100.532 320.371 111.198L320.377 112.195C320.502 122.456 322.567 131.59 326.571 139.599C330.705 147.865 336.305 154.398 343.371 159.198C350.438 163.998 358.371 166.398 367.171 166.398C372.104 166.398 376.771 165.665 381.171 164.198C385.571 162.598 389.504 160.531 392.971 157.998C395.995 155.758 398.594 153.281 400.771 150.57V164.398H429.371V58.5986ZM395.571 111.198C395.571 106.287 394.704 102.185 393.129 98.7578L392.805 98.082L392.772 98.0176L392.742 97.9531C391.065 94.3888 388.74 91.7542 385.761 89.8672L385.701 89.8301L385.643 89.791C382.735 87.8524 379.254 86.7988 374.971 86.7988C370.854 86.7989 367.432 87.8355 364.499 89.791L364.479 89.8037L364.459 89.8174C361.564 91.7145 359.177 94.4032 357.338 98.082C355.558 101.642 354.571 105.96 354.571 111.198L354.583 112.198C354.698 117.125 355.669 121.264 357.349 124.737C359.178 128.387 361.547 131.06 364.418 132.952C367.356 134.803 370.809 135.799 374.971 135.799V141.799L374.003 141.783C369.198 141.635 364.921 140.373 361.171 137.998C357.546 135.623 354.624 132.369 352.405 128.236L351.971 127.398C349.846 123.023 348.717 118.004 348.584 112.34L348.571 111.198C348.571 105.386 349.634 100.261 351.762 95.8252L351.971 95.3984C354.237 90.8652 357.304 87.3321 361.171 84.7988C365.171 82.1322 369.771 80.7989 374.971 80.7988L375.469 80.8027C380.595 80.8834 385.096 82.2155 388.971 84.7988C392.971 87.3322 396.038 90.8651 398.171 95.3984C400.438 99.9317 401.571 105.198 401.571 111.198L401.558 112.34C401.425 118.004 400.296 123.023 398.171 127.398C396.038 131.932 392.971 135.465 388.971 137.998C384.971 140.531 380.304 141.799 374.971 141.799V135.799C379.315 135.799 382.839 134.78 385.761 132.93C388.74 131.043 391.065 128.408 392.742 124.844L392.758 124.811L392.774 124.777C394.578 121.063 395.571 116.588 395.571 111.198ZM435.371 170.398H394.771V164.055C391.261 166.393 387.403 168.316 383.222 169.837L383.146 169.865L383.068 169.891C378.019 171.574 372.708 172.398 367.171 172.398C357.519 172.398 348.663 169.827 340.762 164.669L340 164.162C332.265 158.908 326.151 151.847 321.637 143.131L321.204 142.281C316.595 133.062 314.371 122.652 314.371 111.198C314.371 99.7466 316.594 89.3874 321.223 80.2803L321.23 80.2637L321.239 80.2461C325.943 71.1321 332.358 63.8455 340.508 58.5635C348.741 53.093 358.092 50.3984 368.371 50.3984C374.139 50.3984 379.553 51.2802 384.544 53.1318C388.431 54.4347 391.986 56.1787 395.171 58.3848V52.5986H435.371V170.398Z" fill="white"/>
<path d="M401.5 16.3984V164.398H429.899V100.799C429.899 98.174 430.368 95.7245 431.306 93.4512L431.5 92.998C432.625 90.7481 434.043 88.7324 435.754 86.9512L436.1 86.5986C437.975 84.8487 440.143 83.5088 442.604 82.5791L443.1 82.3984C445.725 81.3985 448.525 80.8672 451.502 80.8047L452.1 80.7988C456.1 80.5322 459.433 81.1988 462.1 82.7988C464.9 84.2655 466.966 86.5988 468.3 89.7988C469.633 92.9988 470.3 96.999 470.3 101.799V164.398H498.7V99.5986C498.7 90.1322 497.3 82.1988 494.5 75.7988C491.833 69.2655 487.766 64.3982 482.3 61.1982C477.133 58.0983 470.715 56.5002 463.046 56.4033L462.3 56.3984C456.433 56.3984 450.833 57.5981 445.5 59.998L444.509 60.458C439.595 62.8018 435.325 65.8486 431.7 69.5986C430.916 70.4106 430.184 71.2446 429.5 72.0977V16.3984H401.5ZM435.5 58.6777C437.86 57.1091 440.375 55.7259 443.038 54.5273C449.148 51.7779 455.587 50.3984 462.3 50.3984C471.056 50.3984 478.844 52.1458 485.33 56.0205C492.024 59.9389 496.889 65.8517 499.997 73.3936C503.224 80.7702 504.7 89.5814 504.7 99.5986V170.398H464.3V101.799C464.3 97.7751 463.77 94.7507 462.933 92.5381L462.762 92.1064C461.911 90.0658 460.752 88.8656 459.315 88.1133L459.162 88.0332L459.013 87.9434C457.661 87.1325 455.63 86.5765 452.499 86.7852L452.3 86.7988H452.1C449.58 86.7988 447.308 87.2153 445.235 88.0049L445.159 88.0342L445.082 88.0615C443.215 88.7151 441.635 89.6629 440.282 90.9033C438.935 92.2627 437.819 93.81 436.925 95.5693C436.259 97.1177 435.899 98.8386 435.899 100.799V170.398H395.5V10.3984H435.5V58.6777Z" fill="white"/>
<path d="M465.086 52.5977H504.311L504.483 58.4189L504.495 58.8281C504.958 58.5137 505.429 58.2076 505.906 57.9092L505.952 57.8809L505.999 57.8525C509.723 55.6182 513.623 53.8859 517.691 52.6719C521.837 51.3015 526.042 50.5977 530.286 50.5977C536.008 50.5977 541.371 51.4488 546.304 53.2432L547.285 53.6152C552.624 55.7183 557.165 59.0439 560.854 63.5068C561.438 64.1933 561.998 64.9094 562.533 65.6533C562.672 65.5174 562.812 65.3813 562.953 65.2471C565.964 62.2555 569.341 59.7083 573.07 57.6104C576.8 55.3802 580.706 53.6519 584.781 52.4443C588.889 51.2273 592.996 50.5977 597.086 50.5977C606.097 50.5977 614.09 52.407 620.716 56.4189C627.451 60.3612 632.336 66.322 635.441 73.9297C638.621 81.3933 640.086 90.216 640.086 100.197V170.397H599.686V102.197C599.686 98.159 599.152 95.2333 598.348 93.1875L598.184 92.79C597.342 90.8543 596.29 89.6785 595.116 88.9336L594.88 88.79L594.779 88.7324L594.682 88.6699C593.378 87.8469 591.322 87.1973 588.086 87.1973C585.73 87.1973 583.625 87.6038 581.714 88.3682L581.638 88.3994L581.561 88.4277C579.787 89.0812 578.204 90.0546 576.78 91.3838L576.774 91.3887L576.769 91.3945C575.515 92.5586 574.516 93.9526 573.769 95.6348C573.081 97.1823 572.686 99.0053 572.686 101.197V170.397H532.286V101.997C532.286 98.2393 531.657 95.4426 530.673 93.3857L530.606 93.2471L530.548 93.1055C529.671 91.001 528.563 89.6835 527.33 88.834L527.082 88.6699C525.718 87.8088 523.763 87.1973 520.886 87.1973C518.53 87.1973 516.425 87.6039 514.515 88.3682L514.438 88.3994L514.36 88.4277C512.623 89.0679 511.167 90.0017 509.929 91.2402L509.85 91.3184L509.769 91.3945C508.488 92.5838 507.401 94.0204 506.517 95.7549C505.847 97.3066 505.486 99.0313 505.486 100.997V170.397H465.086V52.5977ZM471.086 164.397H499.486V100.997C499.486 98.1972 500.019 95.5972 501.086 93.1973C502.286 90.7973 503.819 88.7304 505.686 86.9971C507.435 85.2471 509.479 83.9072 511.814 82.9775L512.286 82.7979C514.953 81.7312 517.819 81.1973 520.886 81.1973C524.619 81.1973 527.753 81.9977 530.286 83.5977C532.819 85.1977 534.753 87.5979 536.086 90.7979C537.552 93.8644 538.286 97.5974 538.286 101.997V164.397H566.686V101.197C566.686 98.4473 567.154 95.9316 568.092 93.6504L568.286 93.1973C569.353 90.7974 570.819 88.7303 572.686 86.9971C574.56 85.2471 576.67 83.9072 579.014 82.9775L579.486 82.7979C582.153 81.7312 585.019 81.1973 588.086 81.1973C592.086 81.1973 595.352 81.9977 597.886 83.5977C600.419 85.0643 602.352 87.3309 603.686 90.3975C605.019 93.4641 605.686 97.3974 605.686 102.197V164.397H634.086V100.197C634.086 90.7307 632.686 82.7306 629.886 76.1973C627.302 69.8682 623.405 65.1032 618.194 61.9023L617.686 61.5977C612.39 58.3685 605.78 56.7034 597.856 56.6025L597.086 56.5977C593.619 56.5977 590.086 57.1307 586.486 58.1973L585.812 58.4033C582.453 59.458 579.211 60.9229 576.086 62.7979L575.465 63.1523C572.379 64.9492 569.586 67.0977 567.086 69.5977C564.952 71.6253 563.117 73.8666 561.58 76.3213C560.254 73.1273 558.679 70.382 556.854 68.0869L556.286 67.3975C553.219 63.6641 549.486 60.9306 545.086 59.1973C540.961 57.5723 536.367 56.709 531.305 56.6074L530.286 56.5977C526.686 56.5977 523.086 57.1975 519.486 58.3975C515.886 59.4641 512.419 60.9971 509.086 62.9971C505.886 64.9971 503.086 67.3973 500.686 70.1973C500.057 70.9303 499.462 71.687 498.897 72.4658L498.486 58.5977H471.086V164.397Z" fill="white"/>
<path d="M714.871 58.5986H686.671V72.4697C684.638 69.7037 682.239 67.2124 679.471 64.998C676.271 62.3316 672.471 60.2654 668.071 58.7988C664.071 57.2988 659.661 56.502 654.841 56.4082L653.871 56.3984C644.671 56.3984 636.471 58.7987 629.271 63.5986L628.601 64.041C621.714 68.6708 616.205 74.9898 612.071 82.998C607.938 91.1313 605.871 100.532 605.871 111.198L605.877 112.195C606.002 122.456 608.067 131.59 612.071 139.599C616.205 147.865 621.805 154.398 628.871 159.198C635.938 163.998 643.871 166.398 652.671 166.398C657.604 166.398 662.271 165.665 666.671 164.198C671.071 162.598 675.004 160.531 678.471 157.998C681.495 155.758 684.094 153.281 686.271 150.57V164.398H714.871V58.5986ZM681.071 111.198C681.071 106.287 680.204 102.185 678.629 98.7578L678.305 98.082L678.272 98.0176L678.242 97.9531C676.565 94.3888 674.24 91.7542 671.261 89.8672L671.201 89.8301L671.143 89.791C668.235 87.8524 664.754 86.7988 660.471 86.7988C656.354 86.7989 652.932 87.8355 649.999 89.791L649.979 89.8037L649.959 89.8174C647.064 91.7145 644.677 94.4032 642.838 98.082C641.058 101.642 640.071 105.96 640.071 111.198L640.083 112.198C640.198 117.125 641.169 121.264 642.849 124.737C644.678 128.387 647.047 131.06 649.918 132.952C652.856 134.803 656.309 135.799 660.471 135.799V141.799L659.503 141.783C654.698 141.635 650.421 140.373 646.671 137.998C643.046 135.623 640.124 132.369 637.905 128.236L637.471 127.398C635.346 123.023 634.217 118.004 634.084 112.34L634.071 111.198C634.071 105.386 635.134 100.261 637.262 95.8252L637.471 95.3984C639.737 90.8652 642.804 87.3321 646.671 84.7988C650.671 82.1322 655.271 80.7989 660.471 80.7988L660.969 80.8027C666.095 80.8834 670.596 82.2155 674.471 84.7988C678.471 87.3322 681.538 90.8651 683.671 95.3984C685.938 99.9317 687.071 105.198 687.071 111.198L687.058 112.34C686.925 118.004 685.796 123.023 683.671 127.398C681.538 131.932 678.471 135.465 674.471 137.998C670.471 140.531 665.804 141.799 660.471 141.799V135.799C664.815 135.799 668.339 134.78 671.261 132.93C674.24 131.043 676.565 128.408 678.242 124.844L678.258 124.811L678.274 124.777C680.078 121.063 681.071 116.588 681.071 111.198ZM720.871 170.398H680.271V164.055C676.761 166.393 672.903 168.316 668.722 169.837L668.646 169.865L668.568 169.891C663.519 171.574 658.208 172.398 652.671 172.398C643.019 172.398 634.163 169.827 626.262 164.669L625.5 164.162C617.765 158.908 611.651 151.847 607.137 143.131L606.704 142.281C602.095 133.062 599.871 122.652 599.871 111.198C599.871 99.7466 602.094 89.3874 606.723 80.2803L606.73 80.2637L606.739 80.2461C611.443 71.1321 617.858 63.8455 626.008 58.5635C634.241 53.093 643.592 50.3984 653.871 50.3984C659.639 50.3984 665.053 51.2802 670.044 53.1318C673.931 54.4347 677.486 56.1787 680.671 58.3848V52.5986H720.871V170.398Z" fill="white"/>
<path d="M714.871 58.5986H686.671V72.4697C684.638 69.7037 682.239 67.2124 679.471 64.998C676.271 62.3316 672.471 60.2654 668.071 58.7988C664.071 57.2988 659.661 56.502 654.841 56.4082L653.871 56.3984C644.671 56.3984 636.471 58.7987 629.271 63.5986L628.601 64.041C621.714 68.6708 616.205 74.9898 612.071 82.998C607.938 91.1313 605.871 100.532 605.871 111.198L605.877 112.195C606.002 122.456 608.067 131.59 612.071 139.599C616.205 147.865 621.805 154.398 628.871 159.198C635.938 163.998 643.871 166.398 652.671 166.398C657.604 166.398 662.271 165.665 666.671 164.198C671.071 162.598 675.004 160.531 678.471 157.998C681.495 155.758 684.094 153.281 686.271 150.57V164.398H714.871V58.5986ZM681.071 111.198C681.071 106.287 680.204 102.185 678.629 98.7578L678.305 98.082L678.272 98.0176L678.242 97.9531C676.565 94.3888 674.24 91.7542 671.261 89.8672L671.201 89.8301L671.143 89.791C668.235 87.8524 664.754 86.7988 660.471 86.7988C656.354 86.7989 652.932 87.8355 649.999 89.791L649.979 89.8037L649.959 89.8174C647.064 91.7145 644.677 94.4032 642.838 98.082C641.058 101.642 640.071 105.96 640.071 111.198L640.083 112.198C640.198 117.125 641.169 121.264 642.849 124.737C644.678 128.387 647.047 131.06 649.918 132.952C652.856 134.803 656.309 135.799 660.471 135.799V141.799L659.503 141.783C654.698 141.635 650.421 140.373 646.671 137.998C643.046 135.623 640.124 132.369 637.905 128.236L637.471 127.398C635.346 123.023 634.217 118.004 634.084 112.34L634.071 111.198C634.071 105.386 635.134 100.261 637.262 95.8252L637.471 95.3984C639.737 90.8652 642.804 87.3321 646.671 84.7988C650.671 82.1322 655.271 80.7989 660.471 80.7988L660.969 80.8027C666.095 80.8834 670.596 82.2155 674.471 84.7988C678.471 87.3322 681.538 90.8651 683.671 95.3984C685.938 99.9317 687.071 105.198 687.071 111.198L687.058 112.34C686.925 118.004 685.796 123.023 683.671 127.398C681.538 131.932 678.471 135.465 674.471 137.998C670.471 140.531 665.804 141.799 660.471 141.799V135.799C664.815 135.799 668.339 134.78 671.261 132.93C674.24 131.043 676.565 128.408 678.242 124.844L678.258 124.811L678.274 124.777C680.078 121.063 681.071 116.588 681.071 111.198ZM720.871 170.398H680.271V164.055C676.761 166.393 672.903 168.316 668.722 169.837L668.646 169.865L668.568 169.891C663.519 171.574 658.208 172.398 652.671 172.398C643.019 172.398 634.163 169.827 626.262 164.669L625.5 164.162C617.765 158.908 611.651 151.847 607.137 143.131L606.704 142.281C602.095 133.062 599.871 122.652 599.871 111.198C599.871 99.7466 602.094 89.3874 606.723 80.2803L606.73 80.2637L606.739 80.2461C611.443 71.1321 617.858 63.8455 626.008 58.5635C634.241 53.093 643.592 50.3984 653.871 50.3984C659.639 50.3984 665.053 51.2802 670.044 53.1318C673.931 54.4347 677.486 56.1787 680.671 58.3848V52.5986H720.871V170.398Z" fill="white"/>
<path d="M876.871 58.5986H848.671V72.4697C846.638 69.7037 844.239 67.2124 841.471 64.998C838.271 62.3316 834.471 60.2654 830.071 58.7988C826.071 57.2988 821.661 56.502 816.841 56.4082L815.871 56.3984C806.671 56.3984 798.471 58.7987 791.271 63.5986L790.601 64.041C783.714 68.6708 778.205 74.9898 774.071 82.998C769.938 91.1313 767.871 100.532 767.871 111.198C767.871 121.865 769.938 131.332 774.071 139.599C778.205 147.865 783.805 154.398 790.871 159.198C797.938 163.998 805.871 166.398 814.671 166.398C819.604 166.398 824.271 165.665 828.671 164.198C833.071 162.598 837.004 160.531 840.471 157.998C843.495 155.758 846.094 153.281 848.271 150.57V164.398H876.871V58.5986ZM843.071 111.198C843.071 106.287 842.204 102.185 840.629 98.7578L840.305 98.082L840.272 98.0176L840.242 97.9531C838.565 94.3888 836.24 91.7542 833.261 89.8672L833.201 89.8301L833.143 89.791C830.235 87.8524 826.754 86.7988 822.471 86.7988C818.354 86.7989 814.932 87.8355 811.999 89.791L811.979 89.8037L811.959 89.8174C809.064 91.7145 806.677 94.4032 804.838 98.082C803.058 101.642 802.071 105.96 802.071 111.198L802.083 112.198C802.198 117.125 803.169 121.264 804.849 124.737C806.678 128.387 809.047 131.06 811.918 132.952C814.856 134.803 818.309 135.799 822.471 135.799V141.799L821.503 141.783C816.698 141.635 812.421 140.373 808.671 137.998C805.046 135.623 802.124 132.369 799.905 128.236L799.471 127.398C797.346 123.023 796.217 118.004 796.084 112.34L796.071 111.198C796.071 105.386 797.134 100.261 799.262 95.8252L799.471 95.3984C801.737 90.8652 804.804 87.3321 808.671 84.7988C812.671 82.1322 817.271 80.7989 822.471 80.7988L822.969 80.8027C828.095 80.8834 832.596 82.2155 836.471 84.7988C840.471 87.3322 843.538 90.8651 845.671 95.3984C847.938 99.9317 849.071 105.198 849.071 111.198L849.058 112.34C848.925 118.004 847.796 123.023 845.671 127.398C843.538 131.932 840.471 135.465 836.471 137.998C832.471 140.531 827.804 141.799 822.471 141.799V135.799C826.815 135.799 830.339 134.78 833.261 132.93C836.24 131.043 838.565 128.408 840.242 124.844L840.258 124.811L840.274 124.777C842.078 121.063 843.071 116.588 843.071 111.198ZM882.871 170.398H842.271V164.055C838.761 166.393 834.903 168.316 830.722 169.837L830.646 169.865L830.568 169.891C825.519 171.574 820.208 172.398 814.671 172.398C805.019 172.398 796.163 169.827 788.262 164.669L787.5 164.162C779.515 158.739 773.258 151.389 768.704 142.281C764.095 133.062 761.871 122.652 761.871 111.198C761.871 99.7466 764.094 89.3874 768.723 80.2803L768.73 80.2637L768.739 80.2461C773.443 71.1321 779.858 63.8455 788.008 58.5635C796.241 53.093 805.592 50.3984 815.871 50.3984C821.639 50.3984 827.053 51.2802 832.044 53.1318C835.931 54.4347 839.486 56.1787 842.671 58.3848V52.5986H882.871V170.398Z" fill="white"/>
<path d="M795.363 16.3984H766.963V69.8096C765.328 68.1004 763.461 66.4966 761.363 64.998C757.763 62.3314 753.63 60.2655 748.963 58.7988C744.713 57.2988 740.287 56.5019 735.686 56.4082L734.763 56.3984C725.43 56.3985 717.096 58.7987 709.763 63.5986C702.563 68.3985 696.83 74.9319 692.563 83.1982C688.43 91.4649 686.363 100.865 686.363 111.398L686.369 112.407C686.494 122.793 688.559 131.99 692.563 139.998C696.83 148.131 702.63 154.598 709.963 159.398C717.296 164.065 725.563 166.398 734.763 166.398C739.696 166.398 744.363 165.732 748.763 164.398C753.296 162.932 757.296 160.999 760.763 158.599C763.624 156.585 766.021 154.401 767.956 152.051L768.563 164.398H795.363V16.3984ZM761.963 111.398C761.963 106.346 761.09 102.097 759.495 98.5254L759.166 97.8203L759.151 97.79L759.138 97.7607C757.411 94.1047 755.178 91.4671 752.495 89.625L751.953 89.2676L751.894 89.2295L751.835 89.1904C748.927 87.2518 745.446 86.1982 741.163 86.1982C736.88 86.1982 733.399 87.2518 730.491 89.1904L730.472 89.2041L730.451 89.2168C727.648 91.0531 725.268 93.7936 723.404 97.7266C721.702 101.466 720.763 105.977 720.763 111.398L720.774 112.436C720.885 117.528 721.81 121.754 723.391 125.238C725.239 129.02 727.631 131.818 730.521 133.824C733.423 135.751 736.894 136.799 741.163 136.799V142.799L740.665 142.795C735.704 142.717 731.329 141.467 727.54 139.045L727.163 138.799C723.296 136.132 720.23 132.465 717.963 127.799C715.963 123.424 714.9 118.346 714.775 112.564L714.763 111.398C714.763 105.265 715.83 99.8649 717.963 95.1982C720.23 90.3983 723.296 86.7316 727.163 84.1982C731.163 81.5316 735.83 80.1982 741.163 80.1982C746.496 80.1982 751.163 81.5316 755.163 84.1982C759.163 86.7316 762.297 90.3982 764.563 95.1982C766.83 99.8649 767.963 105.265 767.963 111.398L767.95 112.564C767.817 118.346 766.688 123.424 764.563 127.799L764.128 128.662C761.901 132.92 758.913 136.299 755.163 138.799L754.786 139.045C750.871 141.547 746.33 142.799 741.163 142.799V136.799C745.447 136.799 748.927 135.744 751.835 133.806C754.877 131.778 757.328 128.962 759.166 125.177C760.962 121.479 761.963 116.943 761.963 111.398ZM801.363 170.398H762.851L762.565 164.596C758.965 166.868 754.969 168.697 750.61 170.107L750.503 170.141C745.499 171.657 740.243 172.398 734.763 172.398C724.813 172.398 715.683 169.938 707.528 164.951L706.742 164.46L706.709 164.439L706.677 164.419C698.704 159.201 692.374 152.23 687.697 143.624L687.25 142.786L687.223 142.734L687.196 142.682C682.582 133.452 680.363 122.973 680.363 111.398C680.363 100.065 682.592 89.7249 687.196 80.5156L687.214 80.4805L687.231 80.4463C691.929 71.3451 698.325 64.0132 706.435 58.6064L706.456 58.5918L706.478 58.5781C714.852 53.0969 724.342 50.3985 734.763 50.3984C740.314 50.3984 745.683 51.2951 750.837 53.0986C754.458 54.2425 757.84 55.7243 760.963 57.5557V10.3984H801.363V170.398Z" fill="white"/>
<path d="M877.099 147.597C877.099 142.263 875.698 138.13 872.898 135.196C870.186 132.355 866.41 130.89 861.57 130.801L861.099 130.797C856.299 130.797 852.365 132.397 849.299 135.597C846.366 138.663 844.898 142.663 844.898 147.597L844.903 148.105C844.988 153.324 846.386 157.355 849.099 160.196C851.811 163.038 855.65 164.503 860.615 164.592L861.099 164.597C865.899 164.597 869.766 163.063 872.699 159.996C875.541 156.896 877.006 152.92 877.095 148.068L877.099 147.597ZM883.094 148.186C882.981 154.25 881.108 159.702 877.122 164.051L877.079 164.098L877.035 164.144C872.817 168.554 867.301 170.597 861.099 170.597C854.946 170.597 849.35 168.883 845.16 164.747L844.759 164.339C840.567 159.947 838.898 154.057 838.898 147.597C838.898 141.388 840.789 135.813 844.963 131.449L844.967 131.445C849.265 126.96 854.814 124.797 861.099 124.797C867.174 124.797 872.683 126.538 876.841 130.648L877.239 131.054C881.407 135.42 883.099 141.222 883.099 147.597L883.094 148.186Z" fill="white"/>
<path d="M958.363 14.3984H929.963V67.8096C928.328 66.1004 926.461 64.4966 924.363 62.998C920.763 60.3314 916.63 58.2655 911.963 56.7988C907.713 55.2988 903.287 54.5019 898.686 54.4082L897.763 54.3984C888.43 54.3985 880.096 56.7987 872.763 61.5986C865.563 66.3985 859.83 72.9319 855.563 81.1982C851.43 89.4649 849.363 98.8651 849.363 109.398L849.369 110.407C849.494 120.793 851.559 129.99 855.563 137.998C859.83 146.131 865.63 152.598 872.963 157.398C880.296 162.065 888.563 164.398 897.763 164.398C902.696 164.398 907.363 163.732 911.763 162.398C916.296 160.932 920.296 158.999 923.763 156.599C926.624 154.585 929.021 152.401 930.956 150.051L931.563 162.398H958.363V14.3984ZM924.963 109.398C924.963 104.346 924.09 100.097 922.495 96.5254L922.166 95.8203L922.151 95.79L922.138 95.7607C920.411 92.1047 918.178 89.4671 915.495 87.625L914.953 87.2676L914.894 87.2295L914.835 87.1904C911.927 85.2518 908.446 84.1982 904.163 84.1982C899.88 84.1982 896.399 85.2518 893.491 87.1904L893.472 87.2041L893.451 87.2168C890.648 89.0531 888.268 91.7936 886.404 95.7266C884.702 99.4659 883.763 103.977 883.763 109.398L883.774 110.436C883.885 115.528 884.81 119.754 886.391 123.238C888.239 127.02 890.631 129.818 893.521 131.824C896.423 133.751 899.894 134.799 904.163 134.799V140.799L903.665 140.795C898.704 140.717 894.329 139.467 890.54 137.045L890.163 136.799C886.296 134.132 883.23 130.465 880.963 125.799C878.963 121.424 877.9 116.346 877.775 110.564L877.763 109.398C877.763 103.265 878.83 97.8649 880.963 93.1982C883.23 88.3983 886.296 84.7316 890.163 82.1982C894.163 79.5316 898.83 78.1982 904.163 78.1982C909.496 78.1982 914.163 79.5316 918.163 82.1982C922.163 84.7316 925.297 88.3982 927.563 93.1982C929.83 97.8649 930.963 103.265 930.963 109.398L930.95 110.564C930.817 116.346 929.688 121.424 927.563 125.799L927.128 126.662C924.901 130.92 921.913 134.299 918.163 136.799L917.786 137.045C913.871 139.547 909.33 140.799 904.163 140.799V134.799C908.447 134.799 911.927 133.744 914.835 131.806C917.877 129.778 920.328 126.962 922.166 123.177C923.962 119.479 924.963 114.943 924.963 109.398ZM964.363 168.398H925.851L925.565 162.596C921.965 164.868 917.969 166.697 913.61 168.107L913.503 168.141C908.499 169.657 903.243 170.398 897.763 170.398C887.813 170.398 878.683 167.938 870.528 162.951L869.742 162.46L869.709 162.439L869.677 162.419C861.704 157.201 855.374 150.23 850.697 141.624L850.25 140.786L850.223 140.734L850.196 140.682C845.582 131.452 843.363 120.973 843.363 109.398C843.363 98.0646 845.592 87.7249 850.196 78.5156L850.214 78.4805L850.231 78.4463C854.929 69.3451 861.325 62.0132 869.435 56.6064L869.456 56.5918L869.478 56.5781C877.852 51.0969 887.342 48.3985 897.763 48.3984C903.314 48.3984 908.683 49.2951 913.837 51.0986C917.458 52.2425 920.84 53.7243 923.963 55.5557V8.39844H964.363V168.398Z" fill="white"/>
<path d="M984.913 48.3984C992.833 48.3984 1000.29 49.8629 1007.2 52.8525C1014.11 55.704 1020.09 59.8546 1025.08 65.2852C1030.03 70.3953 1033.82 76.3974 1036.48 83.2256L1036.73 83.8916C1039.44 91.1106 1040.6 98.9082 1040.31 107.209L1039.98 121.799H1018.31L1038.12 149.478L1034.12 153.065C1029.87 156.878 1025.18 160.102 1020.06 162.734L1020 162.766L1019.93 162.796C1014.89 165.245 1009.69 167.125 1004.33 168.429C998.96 169.735 993.618 170.398 988.313 170.398C976.405 170.398 965.686 168.046 956.335 163.145L955.435 162.663C946.278 157.656 938.981 150.786 933.655 142.095L933.146 141.248C927.739 132.088 925.113 121.677 925.113 110.198C925.113 101.4 926.558 93.1802 929.527 85.6074C932.467 78.1104 936.622 71.5547 942.013 66.0146C947.394 60.3501 953.757 56.0182 961.046 53.043C968.482 49.9288 976.459 48.3984 984.913 48.3984ZM986.059 78.6074C989.762 78.7012 993.113 79.4981 996.113 80.998C999.313 82.598 1001.91 84.8655 1003.91 87.7988C1006.05 90.7321 1007.25 93.9987 1007.51 97.5986V98.3984H958.906C959.396 96.2454 960.065 94.2504 960.916 92.4141L961.113 91.998C963.18 87.7358 966.122 84.4742 969.94 82.2139L970.313 81.998C974.447 79.7315 979.447 78.5986 985.313 78.5986L986.059 78.6074ZM985.313 84.5986C980.231 84.5986 976.286 85.5756 973.232 87.2412C971.052 88.4847 969.233 90.1715 967.769 92.3984H999.767C999.551 92.0364 999.316 91.6788 999.061 91.3271L999.007 91.2539L998.956 91.1787C997.626 89.2276 995.948 87.7113 993.854 86.585L993.43 86.3652C991.157 85.2289 988.493 84.5987 985.313 84.5986ZM931.12 111.183C931.265 121.314 933.664 130.319 938.313 138.198C943.113 146.332 949.78 152.732 958.313 157.398C966.58 161.919 976.223 164.25 987.242 164.392L988.313 164.398C992.813 164.398 997.372 163.871 1001.99 162.816L1002.91 162.599C1007.85 161.399 1012.65 159.665 1017.31 157.398C1021.98 154.998 1026.25 152.065 1030.11 148.599L1016.51 129.599C1012.11 133.198 1007.98 135.732 1004.11 137.198L1003.38 137.465C999.712 138.754 995.688 139.398 991.313 139.398V133.398C995.346 133.398 998.88 132.767 1001.99 131.589C1005.07 130.42 1008.64 128.287 1012.71 124.955L1016.57 121.799H967.236C969.432 125.349 972.407 128.159 976.274 130.269C980.343 132.286 985.298 133.398 991.313 133.398V139.398L990.048 139.384C983.775 139.235 978.263 137.974 973.513 135.599C968.58 132.932 964.713 129.265 961.913 124.599C960.397 121.946 959.312 119.012 958.658 115.799H1034.11L1034.31 106.998C1034.57 99.6358 1033.58 92.8367 1031.33 86.6006L1031.11 85.998C1028.71 79.5982 1025.25 74.065 1020.71 69.3984C1016.31 64.5985 1011.05 60.9318 1004.91 58.3984C998.972 55.8152 992.529 54.4831 985.587 54.4023L984.913 54.3984C977.18 54.3984 969.98 55.7987 963.313 58.5986L962.703 58.8516C956.427 61.5075 950.963 65.29 946.313 70.1982C941.513 75.1316 937.78 80.9988 935.113 87.7988L934.867 88.4375C932.365 95.0654 931.113 102.319 931.113 110.198L931.12 111.183Z" fill="white"/>
<path d="M1026.46 51.5977L1047.5 110.532L1069.25 51.5977H1113.04L1061.15 169.397H1031.45L982.012 51.5977H1026.46ZM991.036 57.5977L1035.44 163.397H1057.24L1103.84 57.5977H1073.44L1047.41 128.116L1022.24 57.5977H991.036Z" fill="white"/>
</g>
</svg>
